<svg width="16" height="16" viewBox="0 0 16 16" fill="none" xmlns="http://www.w3.org/2000/svg">
<path d="M3.33333 4.66797H4C4.35362 4.66797 4.69276 4.52749 4.94281 4.27744C5.19286 4.0274 5.33333 3.68826 5.33333 3.33464C5.33333 3.15782 5.40357 2.98826 5.5286 2.86323C5.65362 2.73821 5.82319 2.66797 6 2.66797H10C10.1768 2.66797 10.3464 2.73821 10.4714 2.86323C10.5964 2.98826 10.6667 3.15782 10.6667 3.33464C10.6667 3.68826 10.8071 4.0274 11.0572 4.27744C11.3072 4.52749 11.6464 4.66797 12 4.66797H12.6667C13.0203 4.66797 13.3594 4.80844 13.6095 5.05849C13.8595 5.30854 14 5.64768 14 6.0013V12.0013C14 12.3549 13.8595 12.6941 13.6095 12.9441C13.3594 13.1942 13.0203 13.3346 12.6667 13.3346H3.33333C2.97971 13.3346 2.64057 13.1942 2.39052 12.9441C2.14048 12.6941 2 12.3549 2 12.0013V6.0013C2 5.64768 2.14048 5.30854 2.39052 5.05849C2.64057 4.80844 2.97971 4.66797 3.33333 4.66797Z" stroke="#0A0D2E" stroke-width="1.5" stroke-linecap="round" stroke-linejoin="round"/>
<path d="M8 10.668C9.10457 10.668 10 9.77254 10 8.66797C10 7.5634 9.10457 6.66797 8 6.66797C6.89543 6.66797 6 7.5634 6 8.66797C6 9.77254 6.89543 10.668 8 10.668Z" stroke="#0A0D2E" stroke-width="1.5" stroke-linecap="round" stroke-linejoin="round"/>
</svg>
