<svg width="128" height="128" viewBox="0 0 128 128" fill="none" xmlns="http://www.w3.org/2000/svg">
<circle opacity="0.08" cx="64" cy="64" r="64" fill="#FF3A3A"/>
<circle opacity="0.12" cx="64" cy="64" r="48" fill="#FF3A3A"/>
<circle opacity="0.24" cx="64" cy="64" r="36" fill="#FF3A3A"/>
<g clip-path="url(#clip0_145_1129)">
<path d="M64 88C77.2548 88 88 77.2548 88 64C88 50.7452 77.2548 40 64 40C50.7452 40 40 50.7452 40 64C40 77.2548 50.7452 88 64 88Z" fill="#FF3A3A"/>
<path d="M73.2226 74.8314C72.7426 74.8314 72.2633 74.6484 71.8966 74.2824L53.7256 56.1107C52.9928 55.3779 52.9928 54.1914 53.7256 53.4594C54.4583 52.7274 55.6448 52.7267 56.3768 53.4594L74.5486 71.6312C75.2813 72.3639 75.2813 73.5504 74.5486 74.2824C74.1818 74.6484 73.7026 74.8314 73.2226 74.8314Z" fill="white"/>
<path d="M55.0509 74.8315C54.5709 74.8315 54.0916 74.6485 53.7249 74.2825C52.9921 73.5497 52.9921 72.3632 53.7249 71.6312L71.8966 53.4595C72.6293 52.7267 73.8158 52.7267 74.5478 53.4595C75.2798 54.1922 75.2806 55.3787 74.5478 56.1107L56.3769 74.2825C56.0109 74.6485 55.5309 74.8315 55.0509 74.8315Z" fill="white"/>
</g>
<defs>
<clipPath id="clip0_145_1129">
<rect width="48" height="48" fill="white" transform="translate(40 40)"/>
</clipPath>
</defs>
</svg>
