<svg width="21" height="21" viewBox="0 0 21 21" fill="none" xmlns="http://www.w3.org/2000/svg">
<path fill-rule="evenodd" clip-rule="evenodd" d="M7.28142 18.8334C6.93809 18.8334 6.61226 18.8067 6.30559 18.7542L6.12392 18.7201C4.14809 18.3092 2.99976 16.7959 2.99976 14.4926V6.50758C2.99976 6.22925 3.01642 5.96258 3.04976 5.70758C3.34059 3.47008 4.87809 2.16675 7.28142 2.16675H13.7189C16.3823 2.16675 17.9748 3.76675 17.9998 6.44341V6.50758V14.4926C17.9998 17.2067 16.4031 18.8334 13.7189 18.8334H7.28142ZM7.28142 3.38091C5.23476 3.38091 4.19726 4.43341 4.19726 6.50758V14.4926C4.19726 16.5667 5.23476 17.6192 7.28142 17.6192H13.7114C15.7573 17.6192 16.7881 16.5667 16.7881 14.4926V6.50758C16.7881 4.43341 15.7573 3.38091 13.7114 3.38091H7.28142ZM14.0881 14.0284C14.0881 13.6951 13.8223 13.4251 13.4939 13.4251H7.48476C7.15642 13.4251 6.88976 13.6951 6.88976 14.0284C6.88976 14.3617 7.15642 14.6317 7.48476 14.6317H13.4939C13.8223 14.6317 14.0881 14.3617 14.0881 14.0284ZM13.4939 9.89258C13.7231 9.86758 13.9473 9.97758 14.0698 10.1751C14.1923 10.3742 14.1923 10.6259 14.0698 10.8251C13.9473 11.0226 13.7231 11.1326 13.4939 11.1076H7.48476C7.17976 11.0726 6.94892 10.8117 6.94892 10.5001C6.94892 10.1884 7.17976 9.92675 7.48476 9.89258H13.4939ZM10.3139 6.97591C10.3139 6.66425 10.0831 6.40258 9.77809 6.36841H7.49226C7.18642 6.40258 6.95559 6.66425 6.95559 6.97591C6.95559 7.28675 7.18642 7.54841 7.49226 7.58258H9.77809C10.0831 7.54841 10.3139 7.28675 10.3139 6.97591Z" fill="#4838D1"/>
</svg>
