<svg width="18" height="18" viewBox="0 0 18 18" fill="none" xmlns="http://www.w3.org/2000/svg">
<path d="M1 5V3C1 2.46957 1.21071 1.96086 1.58579 1.58579C1.96086 1.21071 2.46957 1 3 1H5M1 13V15C1 15.5304 1.21071 16.0391 1.58579 16.4142C1.96086 16.7893 2.46957 17 3 17H5M13 1H15C15.5304 1 16.0391 1.21071 16.4142 1.58579C16.7893 1.96086 17 2.46957 17 3V5M13 17H15C15.5304 17 16.0391 16.7893 16.4142 16.4142C16.7893 16.0391 17 15.5304 17 15V13M6 7H6.01M12 7H12.01M6.5 12C6.82588 12.3326 7.21485 12.5968 7.64413 12.7772C8.07341 12.9576 8.53436 13.0505 9 13.0505C9.46564 13.0505 9.92659 12.9576 10.3559 12.7772C10.7852 12.5968 11.1741 12.3326 11.5 12" stroke="#0A0D2E" stroke-width="1.5" stroke-linecap="round" stroke-linejoin="round"/>
</svg>
