<svg width="24" height="24" viewBox="0 0 24 24" fill="none" xmlns="http://www.w3.org/2000/svg">
<path d="M18.9 7C19.8044 8.50118 20.1909 10.2578 20 12V13C19.9988 14.0529 20.2747 15.0875 20.8 16M7.99994 11C7.99994 9.93913 8.42137 8.92172 9.17151 8.17157C9.92166 7.42143 10.9391 7 11.9999 7C13.0608 7 14.0782 7.42143 14.8284 8.17157C15.5785 8.92172 15.9999 9.93913 15.9999 11V12C15.9999 14.1637 16.7017 16.269 17.9999 18M11.9999 11V13C11.9968 15.8594 12.8692 18.6512 14.4999 21M7.99994 15C8.24464 17.0898 8.85387 19.1206 9.79994 21M4.89994 19C4.22518 16.7303 3.92127 14.3666 3.99994 12V11C3.9961 9.59388 4.36296 8.21157 5.06354 6.99238C5.76412 5.77319 6.77368 4.76019 7.99048 4.05546C9.20728 3.35073 10.5883 2.97917 11.9945 2.97821C13.4006 2.97726 14.7822 3.34695 15.9999 4.05002" stroke="#FFF" stroke-width="1.5" stroke-linecap="round" stroke-linejoin="round"/>
</svg>
