<svg width="120" height="120" viewBox="0 0 120 120" fill="none" xmlns="http://www.w3.org/2000/svg">
<rect width="120" height="120" transform="translate(120 120) rotate(-180)" fill="#0F0F29"/>
<path fill-rule="evenodd" clip-rule="evenodd" d="M50.4004 74.4C63.6552 74.4 74.4004 63.6549 74.4004 50.4C74.4004 37.1452 63.6552 26.4 50.4004 26.4C37.1456 26.4 26.4004 37.1452 26.4004 50.4C26.4004 63.6549 37.1456 74.4 50.4004 74.4ZM50.4004 86.4C70.2826 86.4 86.4004 70.2823 86.4004 50.4C86.4004 30.5178 70.2826 14.4 50.4004 14.4C30.5181 14.4 14.4004 30.5178 14.4004 50.4C14.4004 70.2823 30.5181 86.4 50.4004 86.4Z" fill="white"/>
<path d="M103.2 91.2C103.2 97.8274 97.8276 103.2 91.2002 103.2C84.5728 103.2 79.2002 97.8274 79.2002 91.2C79.2002 84.5726 84.5728 79.2 91.2002 79.2C97.8276 79.2 103.2 84.5726 103.2 91.2Z" fill="white"/>
</svg>
