<svg width="21" height="21" viewBox="0 0 21 21" fill="none" xmlns="http://www.w3.org/2000/svg">
<path fill-rule="evenodd" clip-rule="evenodd" d="M10.5001 2.16675C5.89772 2.16675 2.16675 5.89772 2.16675 10.5001C2.16675 15.1024 5.89772 18.8334 10.5001 18.8334C15.1024 18.8334 18.8334 15.1024 18.8334 10.5001C18.8334 5.89772 15.1024 2.16675 10.5001 2.16675ZM10.5001 3.32955C14.4602 3.32955 17.6706 6.53992 17.6706 10.5001C17.6706 14.4603 14.4602 17.6706 10.5001 17.6706C6.53988 17.6706 3.32951 14.4603 3.32951 10.5001C3.32951 6.53992 6.53988 3.32955 10.5001 3.32955ZM9.55965 7.21222L9.47295 7.20397C9.30873 7.19834 9.13934 7.23956 8.99001 7.32012C8.79672 7.42359 8.64069 7.59127 8.55418 7.79889C8.51441 7.89499 8.44565 8.19167 8.41473 8.36397C8.33707 8.78743 8.2919 9.43865 8.28425 10.1533L8.28309 10.3936C8.28227 11.1519 8.32414 11.8736 8.4015 12.3492L8.44391 12.5676C8.48614 12.7619 8.54223 12.9689 8.58719 13.0562C8.75868 13.3875 9.10753 13.5921 9.47829 13.5803C9.63641 13.5768 9.9686 13.4664 10.1996 13.3694C11.0315 13.0195 12.4965 12.0387 13.1734 11.3774L13.3982 11.1435C13.4843 11.0515 13.523 11.0087 13.5558 10.964C13.6782 10.7976 13.742 10.5966 13.742 10.393C13.742 10.1768 13.6708 9.96567 13.5349 9.79341L13.4685 9.71662L13.2822 9.51769C12.643 8.83647 10.9705 7.7133 10.1161 7.38135C9.92823 7.30708 9.71633 7.23592 9.55965 7.21222ZM9.58843 8.42646L9.6919 8.46399C10.3473 8.71865 11.7379 9.64164 12.3312 10.2097L12.5078 10.3916L12.4409 10.4638C11.9462 10.9972 10.4852 11.9878 9.74911 12.2975L9.58921 12.3559L9.54882 12.1603C9.49086 11.8039 9.45399 11.2399 9.44705 10.6259L9.44586 10.3937C9.44517 9.72408 9.47938 9.09926 9.53828 8.69712L9.56658 8.53141L9.58843 8.42646Z" fill="white"/>
</svg>
