<svg width="128" height="128" viewBox="0 0 128 128" fill="none" xmlns="http://www.w3.org/2000/svg">
<circle opacity="0.08" cx="64" cy="64" r="64" fill="#64CC2C"/>
<circle opacity="0.12" cx="64" cy="64" r="48" fill="#64CC2C"/>
<circle opacity="0.24" cx="64" cy="64" r="36" fill="#64CC2C"/>
<g clip-path="url(#clip0_145_1064)">
<path d="M63.9999 86.141C76.228 86.141 86.1409 76.2282 86.1409 64.0001C86.1409 51.772 76.228 41.8591 63.9999 41.8591C51.7718 41.8591 41.859 51.772 41.859 64.0001C41.859 76.2282 51.7718 86.141 63.9999 86.141Z" fill="#64CC2C"/>
<path d="M64 88C50.7675 88 40 77.2344 40 64C40 50.7675 50.7675 40 64 40C77.2344 40 88 50.7675 88 64C88 77.2344 77.2344 88 64 88ZM64 43.718C52.8161 43.718 43.718 52.8161 43.718 64C43.718 75.1839 52.8161 84.282 64 84.282C75.1839 84.282 84.282 75.182 84.282 64C84.282 52.8161 75.1839 43.718 64 43.718Z" fill="#64CC2C"/>
<path d="M61.0999 72.8305C60.6017 72.8305 60.1258 72.6315 59.7744 72.2746L52.9146 65.3033C52.1952 64.5708 52.2044 63.3959 52.9369 62.6746C53.6694 61.9571 54.8461 61.9645 55.5656 62.6969L61.046 68.2665L72.3842 55.7795C73.0776 55.0192 74.2526 54.9653 75.0091 55.6531C75.7694 56.3428 75.8252 57.5177 75.1355 58.2799L62.4756 72.2225C62.1317 72.6017 61.6483 72.8211 61.1371 72.8322C61.1241 72.8305 61.1129 72.8305 61.0999 72.8305Z" fill="white"/>
</g>
<defs>
<clipPath id="clip0_145_1064">
<rect width="48" height="48" fill="white" transform="translate(40 40)"/>
</clipPath>
</defs>
</svg>
