<svg width="21" height="21" viewBox="0 0 21 21" fill="none" xmlns="http://www.w3.org/2000/svg">
<path fill-rule="evenodd" clip-rule="evenodd" d="M7.28118 18.8334C6.93784 18.8334 6.61201 18.8067 6.30535 18.7542L6.12368 18.7201C4.14785 18.3092 2.99951 16.7959 2.99951 14.4926V6.50758C2.99951 6.22925 3.01618 5.96258 3.04951 5.70758C3.34035 3.47008 4.87784 2.16675 7.28118 2.16675H13.7187C16.382 2.16675 17.9745 3.76675 17.9995 6.44341V6.50758V14.4926C17.9995 17.2067 16.4028 18.8334 13.7187 18.8334H7.28118ZM7.28118 3.38091C5.23451 3.38091 4.19701 4.43341 4.19701 6.50758V14.4926C4.19701 16.5667 5.23451 17.6192 7.28118 17.6192H13.7112C15.757 17.6192 16.7878 16.5667 16.7878 14.4926V6.50758C16.7878 4.43341 15.757 3.38091 13.7112 3.38091H7.28118ZM14.0878 14.0284C14.0878 13.6951 13.822 13.4251 13.4937 13.4251H7.48451C7.15618 13.4251 6.88951 13.6951 6.88951 14.0284C6.88951 14.3617 7.15618 14.6317 7.48451 14.6317H13.4937C13.822 14.6317 14.0878 14.3617 14.0878 14.0284ZM13.4937 9.89258C13.7228 9.86758 13.947 9.97758 14.0695 10.1751C14.192 10.3742 14.192 10.6259 14.0695 10.8251C13.947 11.0226 13.7228 11.1326 13.4937 11.1076H7.48451C7.17951 11.0726 6.94868 10.8117 6.94868 10.5001C6.94868 10.1884 7.17951 9.92675 7.48451 9.89258H13.4937ZM10.3137 6.97591C10.3137 6.66425 10.0828 6.40258 9.77785 6.36841H7.49201C7.18618 6.40258 6.95535 6.66425 6.95535 6.97591C6.95535 7.28675 7.18618 7.54841 7.49201 7.58258H9.77785C10.0828 7.54841 10.3137 7.28675 10.3137 6.97591Z" fill="white"/>
</svg>
