<svg width="19" height="20" viewBox="0 0 19 20" fill="none" xmlns="http://www.w3.org/2000/svg">
<path fill-rule="evenodd" clip-rule="evenodd" d="M5.63062 20C5.21785 20 4.82611 19.968 4.45741 19.905L4.239 19.864C1.86352 19.371 0.48291 17.555 0.48291 14.791V5.209C0.48291 4.875 0.502948 4.555 0.543024 4.249C0.892683 1.564 2.74117 0 5.63062 0H13.3702C16.5723 0 18.4869 1.92 18.5169 5.132V5.209V14.791C18.5169 18.048 16.5973 20 13.3702 20H5.63062ZM5.63063 1.457C3.16998 1.457 1.92263 2.72 1.92263 5.209V14.791C1.92263 17.28 3.16998 18.543 5.63063 18.543H13.3612C15.8209 18.543 17.0602 17.28 17.0602 14.791V5.209C17.0602 2.72 15.8209 1.457 13.3612 1.457H5.63063ZM13.8141 14.234C13.8141 13.834 13.4945 13.51 13.0997 13.51H5.87509C5.48034 13.51 5.15974 13.834 5.15974 14.234C5.15974 14.634 5.48034 14.958 5.87509 14.958H13.0997C13.4945 14.958 13.8141 14.634 13.8141 14.234ZM13.0997 9.271C13.3752 9.241 13.6447 9.373 13.792 9.61C13.9393 9.849 13.9393 10.151 13.792 10.39C13.6447 10.627 13.3752 10.759 13.0997 10.729H5.87508C5.50839 10.687 5.23087 10.374 5.23087 10C5.23087 9.626 5.50839 9.312 5.87508 9.271H13.0997ZM9.27651 5.771C9.27651 5.397 8.99898 5.083 8.63229 5.042H5.8841C5.51641 5.083 5.23889 5.397 5.23889 5.771C5.23889 6.144 5.51641 6.458 5.8841 6.499H8.63229C8.99898 6.458 9.27651 6.144 9.27651 5.771Z" fill="#BBB1FA"/>
</svg>
