<svg width="21" height="20" viewBox="0 0 21 20" fill="none" xmlns="http://www.w3.org/2000/svg">
<path d="M7.62974 18.7733V15.7156C7.62974 14.9351 8.26833 14.3023 9.05608 14.3023H11.9357C12.314 14.3023 12.6768 14.4512 12.9443 14.7163C13.2118 14.9813 13.362 15.3408 13.362 15.7156V18.7733C13.3596 19.0978 13.4881 19.4099 13.7188 19.6402C13.9496 19.8705 14.2635 20 14.591 20H16.5556C17.4732 20.0023 18.3539 19.6428 19.0036 19.0008C19.6532 18.3588 20.0183 17.487 20.0183 16.5778V7.86686C20.0183 7.13246 19.6898 6.43584 19.1212 5.96467L12.4381 0.675869C11.2755 -0.251438 9.60981 -0.221498 8.48196 0.746979L1.95126 5.96467C1.35587 6.42195 1.00001 7.12064 0.982422 7.86686V16.5689C0.982422 18.4639 2.53273 20 4.44513 20H6.36486C7.04508 20 7.5979 19.4562 7.60282 18.7822L7.62974 18.7733Z" fill="white"/>
</svg>
