<svg width="25" height="24" viewBox="0 0 25 24" fill="none" xmlns="http://www.w3.org/2000/svg">
<path fill-rule="evenodd" clip-rule="evenodd" d="M2.48145 10.6699C2.48145 5.88166 6.32905 2 11.0753 2C13.3545 2 15.5404 2.91344 17.1521 4.53936C18.7637 6.16529 19.6692 8.37052 19.6692 10.6699C19.6692 15.4582 15.8216 19.3399 11.0753 19.3399C6.32905 19.3399 2.48145 15.4582 2.48145 10.6699ZM19.527 17.6543L22.0865 19.7164H22.1309C22.6487 20.2388 22.6487 21.0858 22.1309 21.6082C21.6131 22.1306 20.7735 22.1306 20.2557 21.6082L18.1317 19.1785C17.9309 18.9766 17.818 18.7024 17.818 18.4164C17.818 18.1304 17.9309 17.8562 18.1317 17.6543C18.5189 17.2704 19.1397 17.2704 19.527 17.6543Z" fill="white"/>
</svg>
