<svg width="25" height="24" viewBox="0 0 25 24" fill="none" xmlns="http://www.w3.org/2000/svg">
<path fill-rule="evenodd" clip-rule="evenodd" d="M12.1112 2C6.79281 2 2.48145 6.20819 2.48145 11.3993C2.48145 16.5903 6.79281 20.7985 12.1112 20.7985C14.3858 20.7985 16.4762 20.0287 18.1239 18.7415L21.2539 21.7886L21.3372 21.8586C21.6278 22.0685 22.0398 22.0446 22.3027 21.7873C22.592 21.5043 22.5914 21.0459 22.3014 20.7636L19.2082 17.7523C20.7809 16.0794 21.7409 13.8487 21.7409 11.3993C21.7409 6.20819 17.4295 2 12.1112 2ZM12.1112 3.44774C16.6103 3.44774 20.2576 7.00776 20.2576 11.3993C20.2576 15.7908 16.6103 19.3508 12.1112 19.3508C7.61198 19.3508 3.96468 15.7908 3.96468 11.3993C3.96468 7.00776 7.61198 3.44774 12.1112 3.44774Z" fill="#BBB1FA"/>
</svg>
